<svg xmlns="http://www.w3.org/2000/svg" viewBox="0 0 56.62 77.87"><title>Asset 7</title><g id="Layer_2" data-name="Layer 2"><g id="Layer_1-2" data-name="Layer 1"><path d="M54.44,4.13,51,13.32a26,26,0,0,0-13.32-3.22q-11.37,0-18.43,7.47T11.48,36.75a19.5,19.5,0,0,1,7.64-6.89,24.91,24.91,0,0,1,12-2.76q11.37,0,18.43,6.78t7.06,18.61q0,11.6-8,18.49a29,29,0,0,1-19.52,6.89A27.78,27.78,0,0,1,8.56,69.2Q0,60.53,0,43.41,0,23.2,10.8,11.6T38.36,0Q48.58,0,54.44,4.13ZM13.09,52.49A14.44,14.44,0,0,0,17.92,63.8,16.37,16.37,0,0,0,29.17,68.1,16.31,16.31,0,0,0,40.6,63.86q4.65-4.25,4.65-11.37T40.6,41a16.32,16.32,0,0,0-11.43-4.25A16.32,16.32,0,0,0,17.74,41Q13.09,45.25,13.09,52.49Z"/></g></g></svg>