<svg xmlns="http://www.w3.org/2000/svg" width="301" height="129" viewBox="0 0 301 129">
  <g fill="#F1CD2F" fill-rule="evenodd">
    <path d="M64.6171875 27.8515625L79.171875 27.8515625 79.171875 9.5703125 96.75 5 96.75 27.8515625 124.523438 27.8515625 124.523438 41.2109375 96.75 41.2109375 96.75 74.8203125C96.75 78.8984579 97.6874906 81.9804583 99.5625 84.0664062 101.437509 86.1523542 104.578103 87.1953125 108.984375 87.1953125 111.796889 87.1953125 114.539049 86.9609398 117.210938 86.4921875 119.882826 86.0234352 122.320301 85.484378 124.523438 84.875L124.523438 98.5859375C121.429672 99.289066 118.312516 99.8515604 115.171875 100.273437 112.031234 100.695315 109.054702 100.90625 106.242188 100.90625 101.554664 100.90625 97.5117357 100.414067 94.1132812 99.4296875 90.7148268 98.4453076 87.9023549 96.9453226 85.6757812 94.9296875 83.4492076 92.9140524 81.808599 90.3476718 80.7539062 87.2304687 79.6992135 84.1132657 79.171875 80.3984591 79.171875 76.0859375L79.171875 41.2109375 64.6171875 41.2109375 58.0078125 41.2109375C59.5662308 42.6653788 60.2460911 43.7304597 60.7851562 45.5351562 61.3242214 47.3398528 61.59375 49.1796781 61.59375 51.0546875 61.59375 55.0390824 60.9023507 58.5546723 59.5195312 61.6015625 58.1367118 64.6484527 56.1914188 67.2031147 53.6835938 69.265625 51.1757687 71.3281353 48.1757987 72.8867135 44.6835938 73.9414062 41.1913888 74.996099 37.3359586 75.5234375 33.1171875 75.5234375 30.6328001 75.5234375 28.335948 75.2773462 26.2265625 74.7851562 24.117177 74.2929663 22.5234429 73.7187533 21.4453125 73.0625 20.6484335 73.859379 19.9687528 74.7382764 19.40625 75.6992188 18.8437472 76.6601611 18.5625 77.7499939 18.5625 78.96875 18.5625 79.7187538 18.7499981 80.4687462 19.125 81.21875 19.5000019 81.9687538 20.0507776 82.6367158 20.7773438 83.2226562 21.5039099 83.8085967 22.3710887 84.2890606 23.3789062 84.6640625 24.3867238 85.0390644 25.5234312 85.2499998 26.7890625 85.296875L43.734375 85.9296875C47.531269 86.023438 50.9648284 86.5039019 54.0351562 87.3710938 57.1054841 88.2382856 59.7421765 89.468742 61.9453125 91.0625 64.1484485 92.656258 65.8476503 94.5898324 67.0429688 96.8632812 68.2382872 99.1367301 68.8359375 101.726548 68.8359375 104.632812 68.8359375 107.960954 68.085945 111.101548 66.5859375 114.054688 65.08593 117.007827 62.8242339 119.574208 59.8007812 121.753906 56.7773286 123.933605 53.0156475 125.656244 48.515625 126.921875 44.0156025 128.187506 38.7890923 128.820312 32.8359375 128.820312 27.0702837 128.820312 22.113302 128.363286 17.9648438 127.449219 13.8163855 126.535152 10.417982 125.257821 7.76953125 123.617188 5.12108051 121.976554 3.16406883 120.019543 1.8984375 117.746094.632806172 115.472645 0 112.976576 0 110.257812 0 108.617179.210935391 107.093757.6328125 105.6875 1.05468961 104.281243 1.68749578 102.9336 2.53125 101.644531 3.37500422 100.355462 4.42968117 99.1015686 5.6953125 97.8828125 6.96094383 96.6640564 8.46092883 95.4453186 10.1953125 94.2265625 7.89842602 92.9140559 6.15234973 91.2265728 4.95703125 89.1640625 3.76171277 87.1015522 3.1640625 84.8984492 3.1640625 82.5546875 3.1640625 80.9609295 3.37499789 79.4726632 3.796875 78.0898438 4.21875211 76.7070243 4.76952785 75.3828188 5.44921875 74.1171875 6.12890965 72.8515562 6.91405805 71.6328184 7.8046875 70.4609375 8.69531695 69.2890566 9.63280758 68.1406306 10.6171875 67.015625 8.88280383 65.2812413 7.44141199 63.1836061 6.29296875 60.7226562 5.14452551 58.2617064 4.5703125 55.179706 4.5703125 51.4765625 4.5703125 47.4921676 5.2851491 43.9414218 6.71484375 40.8242188 8.1445384 37.7070157 10.1249873 35.0820419 12.65625 32.9492188 15.1875127 30.8163956 18.1992013 29.1992243 21.6914062 28.0976562 25.1836112 26.9960882 28.9921669 26.4453125 33.1171875 26.4453125 35.226573 26.4453125 37.2538965 26.5507802 39.1992188 26.7617188 41.144541 26.9726573 42.9140545 27.3359349 44.5078125 27.8515625L64.6171875 27.8515625zM17.578125 108.78125C17.578125 111.546889 18.9726423 113.585931 21.7617188 114.898438 24.5507952 116.210944 28.4765372 116.867188 33.5390625 116.867188 36.7734537 116.867188 39.5038951 116.562503 41.7304688 115.953125 43.9570424 115.343747 45.7734305 114.54688 47.1796875 113.5625 48.5859445 112.57812 49.593747 111.429694 50.203125 110.117188 50.812503 108.804681 51.1171875 107.44532 51.1171875 106.039062 51.1171875 104.773431 50.8242217 103.707036 50.2382812 102.839844 49.6523408 101.972652 48.8320365 101.246097 47.7773438 100.660156 46.722651 100.074216 45.4804759 99.6289078 44.0507812 99.3242188 42.6210866 99.0195297 41.0390712 98.820313 39.3046875 98.7265625L24.1875 98.4453125C22.8281182 99.3828172 21.7148481 100.273433 20.8476562 101.117188 19.9804644 101.960942 19.3007837 102.792965 18.8085938 103.613281 18.3164038 104.433598 17.9882821 105.265621 17.8242188 106.109375 17.6601554 106.953129 17.578125 107.843745 17.578125 108.78125zM20.4609375 51.4765625C20.4609375 55.2734565 21.5742076 58.2851451 23.8007812 60.5117188 26.0273549 62.7382924 29.1327926 63.8515625 33.1171875 63.8515625 35.226573 63.8515625 37.0663984 63.5000035 38.6367188 62.796875 40.2070391 62.0937465 41.5078073 61.1562559 42.5390625 59.984375 43.5703177 58.8124941 44.3437474 57.4531327 44.859375 55.90625 45.3750026 54.3593673 45.6328125 52.7421959 45.6328125 51.0546875 45.6328125 47.0702926 44.5195424 43.9648549 42.2929688 41.7382812 40.0663951 39.5117076 36.9609574 38.3984375 32.9765625 38.3984375 30.867177 38.3984375 29.0273516 38.7499965 27.4570312 39.453125 25.8867109 40.1562535 24.5859427 41.1054628 23.5546875 42.3007812 22.5234323 43.4960997 21.7500026 44.890617 21.234375 46.484375 20.7187474 48.078133 20.4609375 49.7421788 20.4609375 51.4765625zM159.65625 27.2109375C161.437509 27.2109375 163.101555 27.5390592 164.648438 28.1953125 166.19532 28.8515658 167.531244 29.7539005 168.65625 30.9023438 169.781256 32.050787 170.671872 33.3984298 171.328125 34.9453125 171.984378 36.4921952 172.3125 38.1328038 172.3125 39.8671875 172.3125 41.6484464 171.984378 43.3124923 171.328125 44.859375 170.671872 46.4062577 169.781256 47.7421819 168.65625 48.8671875 167.531244 49.9921931 166.19532 50.8828092 164.648438 51.5390625 163.101555 52.1953158 161.437509 52.5234375 159.65625 52.5234375 157.874991 52.5234375 156.222664 52.1953158 154.699219 51.5390625 153.175774 50.8828092 151.839849 49.9921931 150.691406 48.8671875 149.542963 47.7421819 148.640628 46.4062577 147.984375 44.859375 147.328122 43.3124923 147 41.6484464 147 39.8671875 147 38.1328038 147.328122 36.4921952 147.984375 34.9453125 148.640628 33.3984298 149.542963 32.050787 150.691406 30.9023438 151.839849 29.7539005 153.175774 28.8515658 154.699219 28.1953125 156.222664 27.5390592 157.874991 27.2109375 159.65625 27.2109375zM159.65625 75.65625C161.437509 75.65625 163.101555 75.9843717 164.648438 76.640625 166.19532 77.2968783 167.531244 78.1874944 168.65625 79.3125 169.781256 80.4375056 170.671872 81.7734298 171.328125 83.3203125 171.984378 84.8671952 172.3125 86.5078038 172.3125 88.2421875 172.3125 90.0234464 171.984378 91.6874923 171.328125 93.234375 170.671872 94.7812577 169.781256 96.1289005 168.65625 97.2773438 167.531244 98.425787 166.19532 99.3281217 164.648438 99.984375 163.101555 100.640628 161.437509 100.96875 159.65625 100.96875 157.874991 100.96875 156.222664 100.640628 154.699219 99.984375 153.175774 99.3281217 151.839849 98.425787 150.691406 97.2773438 149.542963 96.1289005 148.640628 94.7812577 147.984375 93.234375 147.328122 91.6874923 147 90.0234464 147 88.2421875 147 86.5078038 147.328122 84.8671952 147.984375 83.3203125 148.640628 81.7734298 149.542963 80.4375056 150.691406 79.3125 151.839849 78.1874944 153.175774 77.2968783 154.699219 76.640625 156.222664 75.9843717 157.874991 75.65625 159.65625 75.65625zM202.96875 114.46875L186.304688 114.46875 235.382812 0 252.117188 0 202.96875 114.46875zM251.140625 114.46875L234.476562 114.46875 283.554688 0 300.289062 0 251.140625 114.46875z"/>
  </g>
</svg>
