<svg xmlns="http://www.w3.org/2000/svg" width="72" height="72" viewBox="0 0 72 72">
  <g fill="none" fill-rule="evenodd" transform="rotate(45 16.35 49.713)">
    <path fill="#A25555" d="M23.4125141,10.8060092 C29.3968434,10.8129531 32.3890081,15.8026067 32.3890081,25.7749698 L32.3890081,40.8243845 L44.1250195,40.8243845 C44.1250195,31.0201231 44.1250195,24.7999202 44.1250195,22.163776 C44.1250195,17.3636643 44.1250195,0.00698701722 23.4125123,-1.16319456e-14 C2.7,0.00698701722 2.7,17.3636643 2.7,22.163776 C2.7,24.7999202 2.7,31.0201231 2.7,40.8243845 L14.4360114,40.8243845 L14.4360114,25.7749698 C14.4360114,15.8026067 17.4281761,10.8129531 23.4125054,10.8060092 Z"/>
    <path fill="#D14646" d="M20.7125141,10.8060092 C26.6968434,10.8129531 29.6890081,15.8026067 29.6890081,25.7749698 L29.6890081,40.8243845 L41.4250195,40.8243845 C41.4250195,31.0201231 41.4250195,24.7999202 41.4250195,22.163776 C41.4250195,17.3636643 41.4250195,0.00698701722 20.7125123,-1.1631345e-14 C1.47431181e-14,0.00698701722 1.3143835e-14,17.3636643 3.55271368e-15,22.163776 C3.55271368e-15,24.7999202 3.55271368e-15,31.0201231 3.55271368e-15,40.8243845 L11.7360114,40.8243845 L11.7360114,25.7749698 C11.7360114,15.8026067 14.7281761,10.8129531 20.7125054,10.8060092 Z"/>
    <rect width="11.7" height="7.245" x="2.7" y="40.755" fill="#B3AFAF"/>
    <rect width="11.7" height="7.245" x="32.4" y="40.755" fill="#B3AFAF"/>
    <rect width="11.7" height="7.245" y="40.755" fill="#D8D8D8"/>
    <rect width="11.7" height="7.245" x="29.7" y="40.755" fill="#D8D8D8"/>
  </g>
</svg>
