<svg xmlns="http://www.w3.org/2000/svg" width="18" height="27" viewBox="0 0 18 27">
  <path fill="#F19595" d="M72.1091196,145.302627 C71.8288884,145.302627 71.5440574,145.242801 71.2744409,145.116192 C70.3067232,144.661931 69.8938067,143.526973 70.3527207,142.573929 C70.61243,142.03445 73.022348,137.274793 77.5078171,136.454966 C80.1240164,135.979139 82.733493,136.940532 85.2700811,139.316186 C86.9461612,140.885231 88.5182161,141.556189 89.9398943,141.311667 C92.2029739,140.922449 94.0198773,138.261924 94.4780837,137.360706 C94.958935,136.415662 96.1265652,136.032705 97.0889756,136.504705 C98.0503245,136.977054 98.4398883,138.125924 97.9597447,139.071317 C97.8518273,139.283491 95.2625189,144.281061 90.6103971,145.080366 C87.9039718,145.547497 85.2046231,144.538105 82.585947,142.086624 C81.0075233,140.609057 79.5416166,139.978796 78.229271,140.21497 C76.0684475,140.602796 74.348139,143.235147 73.8676415,144.216713 C73.5322132,144.901583 72.8348195,145.302627 72.1091196,145.302627 Z" opacity=".99" transform="rotate(128 77.636 59.013)"/>
</svg>
