<svg xmlns="http://www.w3.org/2000/svg" width="630" height="629" viewBox="0 0 630 629">
  <g fill="none" fill-rule="evenodd" transform="rotate(45 285.805 406.616)">
    <path fill="#A25555" d="M256.5,118.318651 C321.941188,118.394657 354.661783,173.028061 354.661783,282.218866 L354.661783,447 L483,447 C483,339.649824 483,271.542719 483,242.678684 C483,190.120633 483,0.0764814622 256.499989,-5.05293439e-15 C30,0.0764876542 30,190.120634 30,242.678684 C30,271.542719 30,339.649824 30,447 L158.338217,447 L158.338217,282.218866 C158.338217,173.028061 191.058812,118.394657 256.5,118.318651 Z"/>
    <path fill="#D14646" d="M226.5,118.318651 C291.941188,118.394657 324.661783,173.028061 324.661783,282.218866 L324.661783,447 L453,447 C453,339.649824 453,271.542719 453,242.678684 C453,190.120633 453,0.0764814622 226.499989,2.33241127e-14 C1.22371778e-13,0.0764876542 1.04882947e-13,190.120634 0,242.678684 C0,271.542719 0,339.649824 0,447 L128.338217,447 L128.338217,282.218866 C128.338217,173.028061 161.058812,118.394657 226.5,118.318651 Z"/>
    <rect width="128" height="57" x="30" y="468" fill="#B3AFAF"/>
    <rect width="128" height="57" x="354" y="468" fill="#B3AFAF"/>
    <path fill="#D8D8D8" d="M0 446L128 446 128 525 0 525 0 446zM0 446L0 468 128 468 128 446 0 446zM325 446L453 446 453 525 325 525 325 446zM325 446L325 468 453 468 453 446 325 446z"/>
  </g>
</svg>
