<svg xmlns="http://www.w3.org/2000/svg" width="16" height="15" viewBox="0 0 16 15">
  <g fill="none" fill-rule="evenodd" transform="translate(1 1)">
    <path fill="#FFF" stroke="#322F2F" stroke-width="1.3" d="M1.86666667,9.6402484 C0.708237088,9.9970854 0,10.4749116 0,11 C0,12.1045695 3.13400675,13 7,13 C10.8659932,13 14,12.1045695 14,11 C14,10.4749116 13.2917629,9.9970854 12.1333333,9.6402484 L12.1333333,4 C12.1333333,1.790861 10.3424723,-8.49901461e-16 8.13333333,-4.4408921e-16 L8.13333333,0 L5.86666667,0 L5.86666667,-8.8817842e-16 C3.65752767,-4.82366169e-16 1.86666667,1.790861 1.86666667,4 L1.86666667,4 L1.86666667,9.6402484 Z"/>
    <path fill="#322F2F" d="M2,8.12286832 C3.66666667,8.54381575 5.33333333,8.75428946 7,8.75428946 C8.66666667,8.75428946 10.3333333,8.54381575 12,8.12286832 L12,10.2000122 C10.3333333,10.5512678 8.66666667,10.7268956 7,10.7268956 C5.33333333,10.7268956 3.66666667,10.5512678 2,10.2000122 L2,8.12286832 Z"/>
  </g>
</svg>
