<svg xmlns="http://www.w3.org/2000/svg" xmlns:xlink="http://www.w3.org/1999/xlink" viewBox="0 0 154.84 143.06"><defs><style>.cls-1{fill:none;clip-rule:evenodd;}.cls-2{fill:#1f1f1f;}.cls-3{clip-path:url(#clip-path);}.cls-4{fill:#181918;}</style><clipPath id="clip-path"><path class="cls-1" d="M63.74,104.06A21.21,21.21,0,0,0,55.36,100,26.33,26.33,0,0,0,50,99.29c-1.34,0-2.67,0-4,0H27c-1.34,0-2.67,0-4,0a26.26,26.26,0,0,0-5.33.67,21,21,0,0,0,0,41,26.25,26.25,0,0,0,5.33.67c1.34,0,2.67,0,4,0H46c1.34,0,2.67,0,4,0a26.24,26.24,0,0,0,5.33-.67,21,21,0,0,0,8.37-36.87Zm-9.28,22.09a7.5,7.5,0,0,1-3.09,1.21,20.65,20.65,0,0,1-3.34.15H25a20.61,20.61,0,0,1-3.34-.15,7.48,7.48,0,0,1-3.09-1.22,6.91,6.91,0,0,1,0-11.4,7.49,7.49,0,0,1,3.09-1.21,20.64,20.64,0,0,1,3.34-.15H48a20.64,20.64,0,0,1,3.34.15,7.5,7.5,0,0,1,3.09,1.22,6.91,6.91,0,0,1,0,11.4Z"/></clipPath></defs><title>Asset 1</title><g id="Layer_2" data-name="Layer 2"><g id="Layer_1-2" data-name="Layer 1"><path d="M32.44,0a4.43,4.43,0,0,0-3.84,2.21L3.08,46.44a4.43,4.43,0,0,0,0,4.45l4.62,7.91A4.43,4.43,0,0,0,11.53,61H63.09a4.43,4.43,0,0,0,3.82-2.2l4.62-7.91a4.43,4.43,0,0,0,0-4.45L46,2.21A4.43,4.43,0,0,0,42.18,0Zm4.87,16c8.43,0,22.44,21.69,17.45,30.24-2.5,4.28-10,5.8-17.45,5.81s-15-1.49-17.45-5.81C14.87,37.61,28.88,16,37.31,16Z"/><path id="path-1" class="cls-2" d="M154.1,85.35c-1.62,2-5.57,3.49-5.57,3.49L119.09,99.42v-7.8l21.67-7.72c2.46-.88,2.84-2.13.84-2.78a14.62,14.62,0,0,0-8.07.42l-14.44,5.09V78.52l.83-.28a49.53,49.53,0,0,1,10-2.13,42.83,42.83,0,0,1,18.69,2.23C155,80.35,155.72,83.31,154.1,85.35ZM121.89,72.07V52.12c0-2.34-.43-4.5-2.63-5.11-1.68-.54-2.73,1-2.73,3.36v49.95L103.06,96V36.49a162,162,0,0,1,18.56,5.09c11.41,3.92,15.28,8.79,15.28,19.77C136.89,72.06,130.29,76.12,121.89,72.07ZM78.34,90.8c-6.52-1.84-7.61-5.67-4.64-7.87a32,32,0,0,1,7.42-3.57l19.31-6.87v7.83l-13.9,5c-2.46.88-2.83,2.13-.84,2.78a14.65,14.65,0,0,0,8.07-.42l6.67-2.42v7l-1.33.22A43.7,43.7,0,0,1,78.34,90.8Z"/><g class="cls-3"><rect class="cls-4" y="97.83" width="73.03" height="45.23"/></g></g></g></svg>